<svg width="34" height="34" viewBox="0 0 34 34" fill="none" xmlns="http://www.w3.org/2000/svg">
<path fill-rule="evenodd" clip-rule="evenodd" d="M15.594 6.21605C13.3161 6.21605 11.1314 7.12096 9.52066 8.73172C7.9099 10.3425 7.00499 12.5271 7.00499 14.8051H5.09631C5.09631 12.0209 6.20232 9.35079 8.17103 7.38209C10.1397 5.41338 12.8099 4.30737 15.594 4.30737C18.3782 4.30737 21.0483 5.41338 23.017 7.38209C24.9858 9.35079 26.0918 12.0209 26.0918 14.8051H24.1831C24.1831 12.5271 23.2782 10.3425 21.6674 8.73172C20.0566 7.12096 17.872 6.21605 15.594 6.21605Z" fill="#323334"/>
<path fill-rule="evenodd" clip-rule="evenodd" d="M3.3976 14.2078C3.48704 14.0963 3.60036 14.0064 3.7292 13.9446C3.85804 13.8829 3.9991 13.8508 4.14198 13.8508H27.0461C27.1889 13.8509 27.3299 13.883 27.4586 13.9448C27.5874 14.0066 27.7006 14.0964 27.79 14.2078C27.8794 14.3192 27.9426 14.4492 27.9751 14.5882C28.0075 14.7273 28.0084 14.8719 27.9775 15.0113L24.4923 30.6949C24.3511 31.3308 23.9974 31.8996 23.4893 32.3074C22.9813 32.7151 22.3494 32.9374 21.698 32.9376H9.49009C8.83867 32.9374 8.20678 32.7151 7.69875 32.3074C7.19072 31.8996 6.83693 31.3308 6.69579 30.6949L3.21055 15.0113C3.17992 14.8722 3.18083 14.728 3.2132 14.5893C3.24556 14.4506 3.30857 14.3209 3.3976 14.2097V14.2078ZM5.33109 15.7595L8.55866 30.2807C8.60558 30.4928 8.72346 30.6826 8.89281 30.8186C9.06217 30.9546 9.27287 31.0288 9.49009 31.0289H21.698C21.9152 31.0288 22.1259 30.9546 22.2953 30.8186C22.4646 30.6826 22.5825 30.4928 22.6294 30.2807L25.8551 15.7595H5.333H5.33109Z" fill="#323334"/>
<circle cx="23.6522" cy="26.6086" r="7.3913" fill="#F2994A"/>
<path d="M22.9189 25.8203H23.6709C24.029 25.8203 24.2943 25.7308 24.4668 25.5518C24.6393 25.3727 24.7256 25.1351 24.7256 24.8389C24.7256 24.5524 24.6393 24.3294 24.4668 24.1699C24.2975 24.0104 24.0632 23.9307 23.7637 23.9307C23.4935 23.9307 23.2673 24.0055 23.085 24.1553C22.9027 24.3018 22.8115 24.4938 22.8115 24.7314H21.4004C21.4004 24.3604 21.4997 24.0283 21.6982 23.7354C21.9001 23.4391 22.18 23.208 22.5381 23.042C22.8994 22.876 23.2965 22.793 23.7295 22.793C24.4814 22.793 25.0706 22.9736 25.4971 23.335C25.9235 23.693 26.1367 24.1878 26.1367 24.8193C26.1367 25.1449 26.0374 25.4443 25.8389 25.7178C25.6403 25.9912 25.3799 26.2012 25.0576 26.3477C25.458 26.4909 25.7559 26.7057 25.9512 26.9922C26.1497 27.2786 26.249 27.6172 26.249 28.0078C26.249 28.6393 26.0179 29.1455 25.5557 29.5264C25.0967 29.9072 24.488 30.0977 23.7295 30.0977C23.0199 30.0977 22.4388 29.9105 21.9863 29.5361C21.5371 29.1618 21.3125 28.667 21.3125 28.0518H22.7236C22.7236 28.3187 22.8229 28.5368 23.0215 28.7061C23.2233 28.8753 23.4707 28.96 23.7637 28.96C24.099 28.96 24.361 28.8721 24.5498 28.6963C24.7419 28.5173 24.8379 28.2812 24.8379 27.9883C24.8379 27.2786 24.4473 26.9238 23.666 26.9238H22.9189V25.8203Z" fill="white"/>
</svg>
